# xmcd CD database file
#
# Track frame offsets:
#	150
#	17066
#	33500
#	50508
#	73868
#	103337
#	119758
#	133604
#	146282
#	163862
#	183668
#	203733
#	212850
#
# Disc length: 3062 seconds
#
# Revision: 2
# Processed by: cddbd v1.5.2PL0 Copyright (c) Steve Scherf et al.
# Submitted via: CDex 1.51
#
DISCID=cd0bf40d
DTITLE=Orquesta Internacional - Exitos de Siempre
DYEAR=2008
DGENRE=Salsa
TTITLE0=Baila Conmigo
TTITLE1=Las Perlas De Tu Boca
TTITLE2=Cachita
TTITLE3=Lagrimas Negras
TTITLE4=Rico Bacilon
TTITLE5=El Carretero
TTITLE6=Conoci La Paz
TTITLE7=Mambo No 5
TTITLE8=Son De La Loma
TTITLE9=Sabroson
TTITLE10=Como Loca
TTITLE11=Conoci La Paz (Coral)
TTITLE12=Hasta Siempre
EXTD=YEAR: 2008
EXTT0=
EXTT1=
EXTT2=
EXTT3=
EXTT4=
EXTT5=
EXTT6=
EXTT7=
EXTT8=
EXTT9=
EXTT10=
EXTT11=
EXTT12=
PLAYORDER=
